<svg width="28" height="28" viewBox="0 0 28 28" fill="none" xmlns="http://www.w3.org/2000/svg">
<rect width="28" height="28" fill="white"/>
<path d="M6.48405 15.9396L13.3332 22.3736C13.6402 22.662 13.7937 22.8062 13.9803 22.8136C13.9934 22.8141 14.0066 22.8141 14.0197 22.8136C14.2063 22.8062 14.3598 22.662 14.6668 22.3736L21.7949 15.6775C23.6119 13.9707 23.8325 11.1619 22.3044 9.19231C20.0994 6.35036 15.6735 6.82698 14.1241 10.0732L14.0556 10.2168C14.0333 10.2636 13.9667 10.2636 13.9444 10.2168L13.711 9.72777C12.2373 6.64008 8.02753 6.18674 5.93026 8.88989C4.2691 11.0309 4.50895 14.0842 6.48405 15.9396Z" fill="#FFB442" stroke="#24221F" stroke-width="2.2"/>
</svg>
